<svg id="svg" version="1.1" xmlns="http://www.w3.org/2000/svg" xmlns:xlink="http://www.w3.org/1999/xlink" width="400" height="400" viewBox="0, 0, 400,400"><g id="svgg"><path id="path0" d="M181.700 0.274 C 179.885 0.361,178.400 0.605,178.400 0.816 C 178.400 1.027,177.410 1.200,176.200 1.200 C 174.990 1.200,174.000 1.380,174.000 1.600 C 174.000 1.820,173.021 2.000,171.824 2.000 C 170.627 2.000,169.536 2.180,169.400 2.400 C 169.264 2.620,168.443 2.800,167.576 2.800 C 166.709 2.800,166.000 2.980,166.000 3.200 C 166.000 3.420,165.280 3.600,164.400 3.600 C 163.520 3.600,162.800 3.780,162.800 4.000 C 162.800 4.220,162.271 4.400,161.624 4.400 C 160.977 4.400,160.336 4.580,160.200 4.800 C 160.064 5.020,159.423 5.200,158.776 5.200 C 158.129 5.200,157.600 5.380,157.600 5.600 C 157.600 5.820,157.060 6.000,156.400 6.000 C 155.740 6.000,155.200 6.180,155.200 6.400 C 155.200 6.620,154.660 6.800,154.000 6.800 C 153.340 6.800,152.800 6.980,152.800 7.200 C 152.800 7.420,152.260 7.600,151.600 7.600 C 150.940 7.600,150.400 7.739,150.400 7.909 C 150.400 8.079,149.635 8.413,148.700 8.650 C 146.386 9.239,143.030 10.533,142.867 10.900 C 142.793 11.065,142.388 11.200,141.967 11.200 C 141.545 11.200,141.200 11.380,141.200 11.600 C 141.200 11.820,140.840 12.000,140.400 12.000 C 139.960 12.000,139.600 12.180,139.600 12.400 C 139.600 12.620,139.366 12.800,139.080 12.800 C 138.344 12.800,136.407 13.741,136.403 14.100 C 136.401 14.265,136.040 14.400,135.600 14.400 C 135.160 14.400,134.800 14.580,134.800 14.800 C 134.800 15.020,134.440 15.200,134.000 15.200 C 133.560 15.200,133.200 15.380,133.200 15.600 C 133.200 15.820,132.840 16.000,132.400 16.000 C 131.960 16.000,131.600 16.180,131.600 16.400 C 131.600 16.620,131.255 16.800,130.833 16.800 C 130.412 16.800,130.007 16.935,129.933 17.100 C 129.766 17.476,127.636 18.775,126.700 19.071 C 126.315 19.193,126.000 19.452,126.000 19.647 C 126.000 19.841,125.770 20.000,125.488 20.000 C 125.207 20.000,124.717 20.360,124.400 20.800 C 124.083 21.240,123.503 21.600,123.112 21.600 C 122.720 21.600,122.400 21.750,122.400 21.932 C 122.400 22.115,121.905 22.519,121.300 22.830 C 120.695 23.140,119.909 23.711,119.553 24.097 C 119.197 24.484,118.700 24.800,118.449 24.800 C 117.693 24.800,113.916 27.582,112.083 29.489 L 110.366 31.276 110.483 34.099 L 110.600 36.922 113.000 38.242 C 117.026 40.456,118.093 40.249,123.600 36.187 C 139.267 24.628,158.866 16.500,179.000 13.211 C 190.889 11.270,209.390 11.256,220.600 13.181 C 221.700 13.369,223.320 13.640,224.200 13.783 C 225.080 13.925,226.430 14.205,227.200 14.406 C 227.970 14.607,229.860 15.066,231.400 15.426 C 241.502 17.790,254.234 22.787,263.300 27.946 C 264.125 28.416,265.436 29.160,266.214 29.601 C 272.348 33.076,281.846 40.105,287.600 45.429 C 288.590 46.345,290.062 47.666,290.872 48.364 C 292.617 49.869,299.478 57.519,302.384 61.200 C 303.513 62.630,304.687 64.103,304.991 64.473 C 309.495 69.939,321.200 91.069,321.200 93.732 C 321.200 94.011,321.363 94.411,321.562 94.620 C 321.957 95.034,324.654 102.922,325.932 107.400 C 333.650 134.448,331.358 168.401,320.113 193.600 C 314.810 205.483,308.875 215.219,300.864 225.176 C 295.817 231.450,295.739 231.749,297.937 236.459 C 299.107 238.965,300.208 239.423,303.870 238.928 C 305.506 238.707,310.400 234.380,310.400 233.154 C 310.400 232.925,311.120 232.046,312.000 231.200 C 312.880 230.354,313.600 229.451,313.600 229.192 C 313.600 228.933,314.140 228.217,314.800 227.600 C 315.460 226.983,316.000 226.231,316.000 225.928 C 316.000 225.625,316.360 225.117,316.800 224.800 C 317.240 224.483,317.600 223.993,317.600 223.712 C 317.600 223.430,317.750 223.200,317.932 223.200 C 318.115 223.200,318.520 222.705,318.832 222.100 C 319.145 221.495,319.715 220.651,320.100 220.225 C 320.485 219.798,320.800 219.296,320.800 219.108 C 320.800 218.920,321.160 218.380,321.600 217.908 C 322.040 217.436,322.400 216.813,322.400 216.525 C 322.400 216.236,322.580 216.000,322.800 216.000 C 323.020 216.000,323.200 215.640,323.200 215.200 C 323.200 214.760,323.347 214.400,323.526 214.400 C 323.924 214.400,325.200 211.799,325.200 210.986 C 325.200 210.664,325.380 210.400,325.600 210.400 C 325.820 210.400,326.000 210.040,326.000 209.600 C 326.000 209.160,326.180 208.800,326.400 208.800 C 326.620 208.800,326.800 208.530,326.800 208.200 C 326.800 207.870,326.980 207.600,327.200 207.600 C 327.420 207.600,327.600 207.240,327.600 206.800 C 327.600 206.360,327.780 206.000,328.000 206.000 C 328.220 206.000,328.400 205.640,328.400 205.200 C 328.400 204.760,328.580 204.400,328.800 204.400 C 329.020 204.400,329.200 204.040,329.200 203.600 C 329.200 203.160,329.380 202.800,329.600 202.800 C 329.820 202.800,330.000 202.440,330.000 202.000 C 330.000 201.560,330.180 201.200,330.400 201.200 C 330.620 201.200,330.800 200.840,330.800 200.400 C 330.800 199.960,330.980 199.600,331.200 199.600 C 331.420 199.600,331.600 199.060,331.600 198.400 C 331.600 197.740,331.780 197.200,332.000 197.200 C 332.220 197.200,332.400 196.840,332.400 196.400 C 332.400 195.960,332.580 195.600,332.800 195.600 C 333.020 195.600,333.200 195.060,333.200 194.400 C 333.200 193.740,333.380 193.200,333.600 193.200 C 333.820 193.200,334.000 192.851,334.000 192.424 C 334.000 191.997,334.180 191.536,334.400 191.400 C 334.620 191.264,334.800 190.713,334.800 190.176 C 334.800 189.639,334.980 189.200,335.200 189.200 C 335.420 189.200,335.600 188.761,335.600 188.224 C 335.600 187.687,335.780 187.136,336.000 187.000 C 336.220 186.864,336.400 186.234,336.400 185.600 C 336.400 184.966,336.580 184.336,336.800 184.200 C 337.020 184.064,337.200 183.423,337.200 182.776 C 337.200 182.129,337.380 181.600,337.600 181.600 C 337.820 181.600,338.000 180.981,338.000 180.224 C 338.000 179.467,338.160 178.748,338.356 178.627 C 338.551 178.506,338.812 177.821,338.934 177.104 C 339.056 176.387,339.354 174.900,339.596 173.800 C 340.992 167.465,341.552 163.540,341.579 159.900 C 341.591 158.380,341.775 157.200,342.000 157.200 C 342.260 157.200,342.400 151.941,342.400 142.224 C 342.400 132.671,342.255 127.158,342.000 127.000 C 341.780 126.864,341.585 125.548,341.566 124.076 C 341.548 122.604,341.379 120.410,341.192 119.200 C 341.005 117.990,340.737 116.100,340.597 115.000 C 340.456 113.900,340.187 112.640,339.998 112.200 C 339.809 111.760,339.563 110.860,339.452 110.200 C 339.340 109.540,339.045 108.190,338.796 107.200 C 338.546 106.210,338.246 104.815,338.127 104.100 C 338.009 103.385,337.752 102.800,337.556 102.800 C 337.360 102.800,337.200 102.181,337.200 101.424 C 337.200 100.667,337.020 99.936,336.800 99.800 C 336.580 99.664,336.400 99.124,336.400 98.600 C 336.400 98.076,336.220 97.536,336.000 97.400 C 335.780 97.264,335.600 96.713,335.600 96.176 C 335.600 95.639,335.420 95.200,335.200 95.200 C 334.980 95.200,334.800 94.761,334.800 94.224 C 334.800 93.687,334.620 93.136,334.400 93.000 C 334.180 92.864,334.000 92.403,334.000 91.976 C 334.000 91.549,333.820 91.200,333.600 91.200 C 333.380 91.200,333.200 90.660,333.200 90.000 C 333.200 89.340,333.020 88.800,332.800 88.800 C 332.580 88.800,332.400 88.440,332.400 88.000 C 332.400 87.560,332.220 87.200,332.000 87.200 C 331.780 87.200,331.600 86.761,331.600 86.224 C 331.600 85.687,331.420 85.136,331.200 85.000 C 330.980 84.864,330.800 84.403,330.800 83.976 C 330.800 83.549,330.620 83.200,330.400 83.200 C 330.180 83.200,330.000 82.840,330.000 82.400 C 330.000 81.960,329.820 81.600,329.600 81.600 C 329.380 81.600,329.200 81.240,329.200 80.800 C 329.200 80.360,329.020 80.000,328.800 80.000 C 328.580 80.000,328.400 79.640,328.400 79.200 C 328.400 78.760,328.220 78.400,328.000 78.400 C 327.780 78.400,327.600 78.040,327.600 77.600 C 327.600 77.160,327.420 76.800,327.200 76.800 C 326.980 76.800,326.800 76.530,326.800 76.200 C 326.800 75.870,326.620 75.600,326.400 75.600 C 326.180 75.600,326.000 75.240,326.000 74.800 C 326.000 74.360,325.820 74.000,325.600 74.000 C 325.380 74.000,325.200 73.745,325.200 73.432 C 325.200 72.765,323.935 70.260,323.500 70.067 C 323.335 69.993,323.200 69.588,323.200 69.167 C 323.200 68.745,323.042 68.400,322.849 68.400 C 322.655 68.400,322.273 67.860,322.000 67.200 C 321.727 66.540,321.345 66.000,321.151 66.000 C 320.958 66.000,320.800 65.764,320.800 65.475 C 320.800 65.187,320.485 64.602,320.100 64.175 C 319.715 63.749,319.145 62.905,318.832 62.300 C 318.520 61.695,318.115 61.200,317.932 61.200 C 317.750 61.200,317.600 60.930,317.600 60.600 C 317.600 60.270,317.459 60.000,317.286 60.000 C 317.114 60.000,316.673 59.492,316.306 58.872 C 315.940 58.252,315.001 57.047,314.220 56.194 C 313.439 55.341,312.800 54.481,312.800 54.282 C 312.800 54.084,312.260 53.417,311.600 52.800 C 310.940 52.183,310.400 51.516,310.400 51.318 C 310.400 50.958,309.961 50.443,304.881 44.846 C 300.706 40.246,300.292 39.834,298.800 38.788 C 298.030 38.249,296.122 36.546,294.559 35.004 C 291.711 32.193,288.626 29.533,287.880 29.247 C 287.661 29.163,286.975 28.610,286.356 28.018 C 285.737 27.426,284.593 26.599,283.815 26.180 C 283.037 25.761,282.400 25.279,282.400 25.109 C 282.400 24.939,282.080 24.800,281.688 24.800 C 281.297 24.800,280.717 24.440,280.400 24.000 C 280.083 23.560,279.543 23.200,279.200 23.200 C 278.857 23.200,278.317 22.840,278.000 22.400 C 277.683 21.960,277.169 21.600,276.859 21.600 C 276.548 21.600,276.003 21.271,275.647 20.870 C 275.291 20.468,274.415 19.884,273.700 19.572 C 272.985 19.260,272.400 18.869,272.400 18.702 C 272.400 18.536,272.164 18.400,271.875 18.400 C 271.587 18.400,270.964 18.040,270.492 17.600 C 270.020 17.160,269.356 16.800,269.017 16.800 C 268.678 16.800,268.400 16.620,268.400 16.400 C 268.400 16.180,268.040 16.000,267.600 16.000 C 267.160 16.000,266.800 15.820,266.800 15.600 C 266.800 15.380,266.440 15.200,266.000 15.200 C 265.560 15.200,265.200 15.020,265.200 14.800 C 265.200 14.580,264.840 14.400,264.400 14.400 C 263.960 14.400,263.600 14.220,263.600 14.000 C 263.600 13.780,263.240 13.600,262.800 13.600 C 262.360 13.600,262.000 13.420,262.000 13.200 C 262.000 12.980,261.640 12.800,261.200 12.800 C 260.760 12.800,260.400 12.620,260.400 12.400 C 260.400 12.180,260.040 12.000,259.600 12.000 C 259.160 12.000,258.800 11.820,258.800 11.600 C 258.800 11.380,258.528 11.200,258.195 11.200 C 257.862 11.200,257.277 11.035,256.895 10.834 C 255.366 10.027,253.271 9.216,251.483 8.738 C 250.447 8.461,249.600 8.091,249.600 7.917 C 249.600 7.743,249.060 7.600,248.400 7.600 C 247.740 7.600,247.200 7.420,247.200 7.200 C 247.200 6.980,246.660 6.800,246.000 6.800 C 245.340 6.800,244.800 6.620,244.800 6.400 C 244.800 6.180,244.260 6.000,243.600 6.000 C 242.940 6.000,242.400 5.820,242.400 5.600 C 242.400 5.380,241.770 5.200,241.000 5.200 C 240.230 5.200,239.600 5.020,239.600 4.800 C 239.600 4.580,239.071 4.400,238.424 4.400 C 237.777 4.400,237.136 4.220,237.000 4.000 C 236.864 3.780,236.043 3.600,235.176 3.600 C 234.309 3.600,233.600 3.420,233.600 3.200 C 233.600 2.980,232.790 2.800,231.800 2.800 C 230.810 2.800,230.000 2.620,230.000 2.400 C 230.000 2.180,229.100 2.000,228.000 2.000 C 226.900 2.000,226.000 1.820,226.000 1.600 C 226.000 1.380,225.046 1.200,223.880 1.200 C 222.714 1.200,221.540 0.980,221.272 0.712 C 220.787 0.227,189.821 -0.115,181.700 0.274 M96.600 44.400 C 96.464 44.620,96.048 44.804,95.676 44.809 C 95.304 44.814,94.370 45.561,93.600 46.468 C 92.830 47.376,91.615 48.715,90.900 49.446 C 90.185 50.176,89.600 50.938,89.600 51.138 C 89.600 51.339,88.880 52.245,88.000 53.152 C 87.120 54.059,86.400 54.998,86.400 55.240 C 86.400 55.481,85.860 56.183,85.200 56.800 C 84.540 57.417,84.000 58.091,84.000 58.298 C 84.000 58.506,83.640 59.002,83.200 59.400 C 82.760 59.798,82.400 60.326,82.400 60.574 C 82.400 60.821,82.040 61.283,81.600 61.600 C 81.160 61.917,80.800 62.497,80.800 62.888 C 80.800 63.280,80.650 63.600,80.468 63.600 C 80.285 63.600,79.880 64.095,79.568 64.700 C 79.255 65.305,78.685 66.149,78.300 66.575 C 77.915 67.002,77.600 67.587,77.600 67.875 C 77.600 68.164,77.420 68.400,77.200 68.400 C 76.980 68.400,76.800 68.760,76.800 69.200 C 76.800 69.640,76.653 70.000,76.474 70.000 C 76.076 70.000,74.800 72.601,74.800 73.414 C 74.800 73.736,74.654 74.000,74.475 74.000 C 74.296 74.000,73.902 74.630,73.600 75.400 C 73.298 76.170,72.904 76.800,72.725 76.800 C 72.546 76.800,72.400 77.160,72.400 77.600 C 72.400 78.040,72.220 78.400,72.000 78.400 C 71.780 78.400,71.600 78.760,71.600 79.200 C 71.600 79.640,71.420 80.000,71.200 80.000 C 70.980 80.000,70.800 80.360,70.800 80.800 C 70.800 81.240,70.620 81.600,70.400 81.600 C 70.180 81.600,70.000 81.960,70.000 82.400 C 70.000 82.840,69.820 83.200,69.600 83.200 C 69.380 83.200,69.200 83.560,69.200 84.000 C 69.200 84.440,69.020 84.800,68.800 84.800 C 68.580 84.800,68.400 85.340,68.400 86.000 C 68.400 86.660,68.220 87.200,68.000 87.200 C 67.780 87.200,67.600 87.560,67.600 88.000 C 67.600 88.440,67.420 88.800,67.200 88.800 C 66.980 88.800,66.800 89.340,66.800 90.000 C 66.800 90.660,66.620 91.200,66.400 91.200 C 66.180 91.200,66.000 91.472,66.000 91.805 C 66.000 92.138,65.820 92.768,65.600 93.205 C 65.380 93.642,65.020 94.358,64.800 94.795 C 64.580 95.232,64.400 95.941,64.400 96.371 C 64.400 96.801,64.220 97.264,64.000 97.400 C 63.780 97.536,63.600 98.166,63.600 98.800 C 63.600 99.434,63.420 100.064,63.200 100.200 C 62.980 100.336,62.800 100.977,62.800 101.624 C 62.800 102.271,62.640 102.800,62.444 102.800 C 62.248 102.800,61.991 103.385,61.873 104.100 C 61.754 104.815,61.455 106.210,61.207 107.200 C 59.432 114.287,58.454 120.284,58.421 124.276 C 58.409 125.638,58.220 126.864,58.000 127.000 C 57.504 127.306,57.444 157.200,57.939 157.200 C 58.126 157.200,58.399 159.469,58.548 162.242 C 58.696 165.016,58.993 167.614,59.209 168.016 C 59.424 168.418,59.600 169.469,59.600 170.350 C 59.600 171.232,59.761 172.052,59.958 172.174 C 60.155 172.295,60.410 173.071,60.525 173.897 C 60.640 174.724,60.943 176.210,61.196 177.200 C 61.450 178.190,61.754 179.585,61.873 180.300 C 61.991 181.015,62.248 181.600,62.444 181.600 C 62.640 181.600,62.800 181.992,62.800 182.472 C 62.800 183.392,63.460 185.728,64.049 186.895 C 64.242 187.277,64.400 187.952,64.400 188.395 C 64.400 188.838,64.580 189.200,64.800 189.200 C 65.020 189.200,65.200 189.639,65.200 190.176 C 65.200 190.713,65.380 191.264,65.600 191.400 C 65.820 191.536,66.000 191.997,66.000 192.424 C 66.000 192.851,66.180 193.200,66.400 193.200 C 66.620 193.200,66.800 193.740,66.800 194.400 C 66.800 195.060,66.980 195.600,67.200 195.600 C 67.420 195.600,67.600 195.960,67.600 196.400 C 67.600 196.840,67.780 197.200,68.000 197.200 C 68.220 197.200,68.400 197.639,68.400 198.176 C 68.400 198.713,68.580 199.264,68.800 199.400 C 69.020 199.536,69.200 199.997,69.200 200.424 C 69.200 200.851,69.380 201.200,69.600 201.200 C 69.820 201.200,70.000 201.560,70.000 202.000 C 70.000 202.440,70.180 202.800,70.400 202.800 C 70.620 202.800,70.800 203.160,70.800 203.600 C 70.800 204.040,70.980 204.400,71.200 204.400 C 71.420 204.400,71.600 204.760,71.600 205.200 C 71.600 205.640,71.780 206.000,72.000 206.000 C 72.220 206.000,72.400 206.360,72.400 206.800 C 72.400 207.240,72.580 207.600,72.800 207.600 C 73.020 207.600,73.200 207.870,73.200 208.200 C 73.200 208.530,73.380 208.800,73.600 208.800 C 73.820 208.800,74.000 209.160,74.000 209.600 C 74.000 210.040,74.180 210.400,74.400 210.400 C 74.620 210.400,74.800 210.642,74.800 210.939 C 74.800 211.504,75.964 214.056,76.378 214.400 C 76.511 214.510,77.065 215.455,77.609 216.500 C 78.153 217.545,78.734 218.400,78.899 218.400 C 79.065 218.400,79.200 218.636,79.200 218.925 C 79.200 219.213,79.515 219.798,79.900 220.225 C 80.285 220.651,80.855 221.495,81.168 222.100 C 81.480 222.705,81.885 223.200,82.068 223.200 C 82.250 223.200,82.400 223.430,82.400 223.712 C 82.400 223.993,82.760 224.483,83.200 224.800 C 83.640 225.117,84.000 225.569,84.000 225.804 C 84.000 226.040,84.720 227.028,85.600 228.000 C 86.480 228.972,87.200 229.910,87.200 230.084 C 87.200 230.257,87.920 231.141,88.800 232.048 C 89.680 232.955,90.400 233.863,90.400 234.066 C 90.400 234.270,90.805 234.859,91.300 235.376 C 91.795 235.892,93.460 237.713,95.000 239.423 C 98.823 243.668,100.084 244.922,101.869 246.257 C 102.710 246.886,104.423 248.435,105.677 249.700 C 106.930 250.965,108.055 252.000,108.177 252.000 C 108.299 252.000,109.163 252.720,110.097 253.600 C 111.031 254.480,111.956 255.200,112.151 255.200 C 112.346 255.200,112.797 255.528,113.153 255.928 C 113.509 256.329,114.430 257.004,115.200 257.428 C 115.970 257.853,116.891 258.515,117.247 258.900 C 117.603 259.285,118.148 259.600,118.459 259.600 C 118.769 259.600,119.283 259.960,119.600 260.400 C 119.917 260.840,120.457 261.200,120.800 261.200 C 121.143 261.200,121.683 261.560,122.000 262.000 C 122.317 262.440,122.831 262.800,123.141 262.800 C 123.452 262.800,123.997 263.129,124.353 263.530 C 124.709 263.932,125.585 264.516,126.300 264.828 C 127.015 265.140,127.600 265.531,127.600 265.698 C 127.600 265.864,127.870 266.000,128.200 266.000 C 128.530 266.000,128.800 266.146,128.800 266.325 C 128.800 266.504,129.430 266.898,130.200 267.200 C 130.970 267.502,131.600 267.896,131.600 268.075 C 131.600 268.254,131.960 268.400,132.400 268.400 C 132.840 268.400,133.200 268.580,133.200 268.800 C 133.200 269.020,133.560 269.200,134.000 269.200 C 134.440 269.200,134.800 269.380,134.800 269.600 C 134.800 269.820,135.160 270.000,135.600 270.000 C 136.040 270.000,136.400 270.180,136.400 270.400 C 136.400 270.620,136.760 270.800,137.200 270.800 C 137.640 270.800,138.000 270.980,138.000 271.200 C 138.000 271.420,138.360 271.600,138.800 271.600 C 139.240 271.600,139.600 271.780,139.600 272.000 C 139.600 272.220,139.924 272.400,140.320 272.400 C 140.716 272.400,141.211 272.556,141.420 272.747 C 141.629 272.938,142.655 273.413,143.700 273.802 C 145.413 274.439,146.148 275.315,145.266 275.667 C 140.951 277.388,140.315 292.957,144.487 294.733 C 144.659 294.807,144.800 295.077,144.800 295.333 C 144.803 298.122,153.061 300.343,154.344 297.900 C 154.604 297.405,155.263 296.388,155.809 295.641 C 157.275 293.631,157.148 291.530,155.382 288.599 C 154.603 287.304,154.018 285.874,154.082 285.422 L 154.200 284.600 200.000 284.600 L 245.800 284.600 245.920 285.440 C 245.990 285.927,245.222 287.526,244.095 289.240 C 238.014 298.495,232.564 309.092,228.037 320.467 C 226.608 324.056,226.102 324.897,224.851 325.765 C 223.167 326.932,215.802 334.372,213.334 337.400 C 208.772 342.996,202.598 354.050,200.636 360.133 C 200.261 361.297,199.554 360.725,198.721 358.582 C 194.081 346.646,185.911 335.050,176.409 326.911 C 173.169 324.135,173.742 325.160,169.405 314.400 C 167.622 309.976,165.745 308.672,161.581 308.962 C 158.902 309.149,157.600 309.740,157.600 310.771 C 157.600 311.007,157.420 311.200,157.200 311.200 C 156.586 311.200,156.683 317.491,157.300 317.713 C 157.639 317.835,157.510 318.150,156.900 318.693 C 156.405 319.133,156.000 319.788,156.000 320.147 C 156.000 320.506,155.820 320.800,155.600 320.800 C 155.369 320.800,155.200 322.067,155.200 323.800 C 155.200 325.533,155.369 326.800,155.600 326.800 C 155.820 326.800,156.000 327.340,156.000 328.000 C 156.000 328.660,156.180 329.200,156.400 329.200 C 156.620 329.200,156.800 329.549,156.800 329.976 C 156.800 330.403,156.980 330.864,157.200 331.000 C 157.420 331.136,157.600 331.687,157.600 332.224 C 157.600 332.761,157.780 333.200,158.000 333.200 C 158.220 333.200,158.400 333.629,158.400 334.154 C 158.400 335.178,159.440 338.953,160.037 340.095 C 161.169 342.260,160.337 342.416,158.400 340.400 C 157.554 339.520,156.757 338.800,156.628 338.800 C 156.498 338.800,155.828 338.260,155.137 337.600 C 154.446 336.940,153.678 336.400,153.429 336.400 C 153.180 336.400,152.717 336.040,152.400 335.600 C 152.083 335.160,151.586 334.800,151.295 334.800 C 151.004 334.800,150.380 334.440,149.908 334.000 C 149.436 333.560,148.813 333.200,148.525 333.200 C 148.236 333.200,148.000 333.020,148.000 332.800 C 148.000 332.580,147.640 332.400,147.200 332.400 C 146.760 332.400,146.400 332.220,146.400 332.000 C 146.400 331.780,146.040 331.600,145.600 331.600 C 145.160 331.600,144.800 331.460,144.800 331.288 C 144.800 330.935,139.590 328.400,138.863 328.400 C 138.602 328.400,138.051 328.189,137.639 327.931 C 136.131 326.990,130.800 329.340,130.800 330.947 C 130.800 331.306,130.620 331.600,130.400 331.600 C 130.167 331.600,130.000 332.933,130.000 334.800 C 130.000 336.560,130.136 338.000,130.302 338.000 C 130.469 338.000,130.829 338.506,131.103 339.125 C 131.376 339.744,131.960 340.636,132.400 341.108 C 132.840 341.580,133.200 342.244,133.200 342.583 C 133.200 342.922,133.380 343.200,133.600 343.200 C 133.820 343.200,134.000 343.560,134.000 344.000 C 134.000 344.440,134.180 344.800,134.400 344.800 C 134.620 344.800,134.800 345.160,134.800 345.600 C 134.800 346.040,134.980 346.400,135.200 346.400 C 135.420 346.400,135.600 346.760,135.600 347.200 C 135.600 347.733,135.333 348.000,134.800 348.000 C 134.360 348.000,134.000 347.820,134.000 347.600 C 134.000 347.380,133.640 347.200,133.200 347.200 C 132.760 347.200,132.399 347.065,132.397 346.900 C 132.393 346.541,130.456 345.600,129.720 345.600 C 129.434 345.600,129.200 345.420,129.200 345.200 C 129.200 344.980,128.840 344.800,128.400 344.800 C 127.960 344.800,127.600 344.659,127.600 344.487 C 127.600 344.315,126.745 343.929,125.700 343.629 C 124.655 343.329,123.620 342.946,123.400 342.777 C 122.662 342.212,118.631 341.497,115.200 341.323 L 111.800 341.150 110.100 342.606 L 108.400 344.062 108.400 347.337 C 108.400 350.463,109.647 353.559,111.567 355.200 C 111.696 355.310,112.055 355.892,112.365 356.493 C 112.674 357.095,113.259 357.942,113.664 358.377 C 114.069 358.811,114.400 359.444,114.400 359.783 C 114.400 360.122,114.580 360.400,114.800 360.400 C 115.020 360.400,115.200 360.760,115.200 361.200 C 115.200 361.640,115.380 362.000,115.600 362.000 C 115.820 362.000,116.000 362.360,116.000 362.800 C 116.000 363.240,116.180 363.600,116.400 363.600 C 116.620 363.600,116.800 363.996,116.800 364.480 C 116.800 365.164,116.693 365.253,116.320 364.880 C 116.056 364.616,115.167 364.400,114.344 364.400 C 113.521 364.400,112.736 364.220,112.600 364.000 C 112.464 363.780,111.114 363.600,109.600 363.600 C 108.086 363.600,106.736 363.420,106.600 363.200 C 106.270 362.667,95.330 362.667,95.000 363.200 C 94.864 363.420,93.899 363.600,92.855 363.600 C 90.815 363.600,88.000 365.545,88.000 366.954 C 88.000 367.309,87.820 367.600,87.600 367.600 C 87.374 367.600,87.200 368.733,87.200 370.200 C 87.200 371.667,87.374 372.800,87.600 372.800 C 87.820 372.800,88.000 373.083,88.000 373.429 C 88.000 374.178,88.609 374.798,90.100 375.568 C 90.705 375.880,91.200 376.285,91.200 376.468 C 91.200 376.650,91.374 376.800,91.586 376.800 C 92.010 376.800,94.821 379.236,96.158 380.761 C 96.621 381.290,97.540 382.281,98.200 382.964 C 98.860 383.647,99.655 384.700,99.968 385.303 C 100.280 385.906,100.685 386.400,100.868 386.400 C 101.050 386.400,101.200 386.760,101.200 387.200 C 101.200 387.985,100.933 388.000,86.560 388.000 L 71.920 388.000 70.660 389.308 C 67.537 392.550,67.496 395.927,70.542 398.889 L 71.685 400.000 200.000 400.000 L 328.315 400.000 329.558 398.840 C 330.241 398.201,330.800 397.391,330.800 397.040 C 330.800 396.688,330.980 396.400,331.200 396.400 C 332.723 396.400,331.413 391.487,329.313 389.325 L 328.027 388.000 313.413 388.000 C 299.067 388.000,298.800 387.985,298.800 387.200 C 298.800 386.760,298.950 386.400,299.132 386.400 C 299.315 386.400,299.720 385.906,300.032 385.303 C 300.345 384.700,301.140 383.647,301.800 382.964 C 302.460 382.281,303.379 381.290,303.842 380.761 C 305.179 379.236,307.990 376.800,308.414 376.800 C 308.626 376.800,308.800 376.650,308.800 376.468 C 308.800 376.285,309.295 375.880,309.900 375.568 C 311.391 374.798,312.000 374.178,312.000 373.429 C 312.000 373.083,312.180 372.800,312.400 372.800 C 312.626 372.800,312.800 371.667,312.800 370.200 C 312.800 368.733,312.626 367.600,312.400 367.600 C 312.180 367.600,312.000 367.309,312.000 366.954 C 312.000 365.545,309.185 363.600,307.145 363.600 C 306.101 363.600,305.136 363.420,305.000 363.200 C 304.854 362.964,302.470 362.800,299.200 362.800 C 295.930 362.800,293.546 362.964,293.400 363.200 C 293.264 363.420,291.914 363.600,290.400 363.600 C 288.886 363.600,287.536 363.780,287.400 364.000 C 287.264 364.220,286.479 364.400,285.656 364.400 C 284.833 364.400,283.944 364.616,283.680 364.880 C 283.307 365.253,283.200 365.164,283.200 364.480 C 283.200 363.996,283.380 363.600,283.600 363.600 C 283.820 363.600,284.000 363.240,284.000 362.800 C 284.000 362.360,284.180 362.000,284.400 362.000 C 284.620 362.000,284.800 361.640,284.800 361.200 C 284.800 360.760,284.980 360.400,285.200 360.400 C 285.420 360.400,285.600 360.040,285.600 359.600 C 285.600 359.160,285.780 358.800,286.000 358.800 C 286.220 358.800,286.400 358.530,286.400 358.200 C 286.400 357.870,286.550 357.600,286.732 357.600 C 286.915 357.600,287.320 357.105,287.632 356.500 C 287.944 355.895,288.304 355.310,288.433 355.200 C 290.353 353.559,291.600 350.463,291.600 347.337 L 291.600 344.062 289.900 342.606 L 288.200 341.150 284.800 341.323 C 281.369 341.497,277.338 342.212,276.600 342.777 C 276.380 342.946,275.345 343.329,274.300 343.629 C 273.255 343.929,272.400 344.315,272.400 344.487 C 272.400 344.659,272.040 344.800,271.600 344.800 C 271.160 344.800,270.800 344.980,270.800 345.200 C 270.800 345.420,270.566 345.600,270.280 345.600 C 269.544 345.600,267.607 346.541,267.603 346.900 C 267.601 347.065,267.240 347.200,266.800 347.200 C 266.360 347.200,266.000 347.380,266.000 347.600 C 266.000 347.820,265.640 348.000,265.200 348.000 C 264.667 348.000,264.400 347.733,264.400 347.200 C 264.400 346.760,264.580 346.400,264.800 346.400 C 265.020 346.400,265.200 346.040,265.200 345.600 C 265.200 345.160,265.380 344.800,265.600 344.800 C 265.820 344.800,266.000 344.440,266.000 344.000 C 266.000 343.560,266.180 343.200,266.400 343.200 C 266.620 343.200,266.800 342.922,266.800 342.583 C 266.800 342.244,267.160 341.580,267.600 341.108 C 268.040 340.636,268.624 339.744,268.897 339.125 C 269.171 338.506,269.531 338.000,269.698 338.000 C 269.864 338.000,270.000 336.560,270.000 334.800 C 270.000 332.933,269.833 331.600,269.600 331.600 C 269.380 331.600,269.200 331.306,269.200 330.947 C 269.200 329.340,263.869 326.990,262.361 327.931 C 261.949 328.189,261.398 328.400,261.137 328.400 C 260.410 328.400,255.200 330.935,255.200 331.288 C 255.200 331.460,254.840 331.600,254.400 331.600 C 253.960 331.600,253.600 331.780,253.600 332.000 C 253.600 332.220,253.240 332.400,252.800 332.400 C 252.360 332.400,252.000 332.580,252.000 332.800 C 252.000 333.020,251.764 333.200,251.475 333.200 C 251.187 333.200,250.564 333.560,250.092 334.000 C 249.620 334.440,248.996 334.800,248.705 334.800 C 248.414 334.800,247.917 335.160,247.600 335.600 C 247.283 336.040,246.820 336.400,246.571 336.400 C 246.322 336.400,245.554 336.940,244.863 337.600 C 244.172 338.260,243.502 338.800,243.372 338.800 C 243.243 338.800,242.446 339.520,241.600 340.400 C 239.663 342.416,238.831 342.260,239.963 340.095 C 240.560 338.953,241.600 335.178,241.600 334.154 C 241.600 333.629,241.780 333.200,242.000 333.200 C 242.220 333.200,242.400 332.761,242.400 332.224 C 242.400 331.687,242.580 331.136,242.800 331.000 C 243.020 330.864,243.200 330.403,243.200 329.976 C 243.200 329.549,243.380 329.200,243.600 329.200 C 243.820 329.200,244.000 328.660,244.000 328.000 C 244.000 327.340,244.180 326.800,244.400 326.800 C 244.631 326.800,244.800 325.533,244.800 323.800 C 244.800 322.067,244.631 320.800,244.400 320.800 C 244.180 320.800,244.000 320.506,244.000 320.147 C 244.000 319.788,243.595 319.133,243.100 318.693 C 242.490 318.150,242.361 317.835,242.700 317.713 C 242.975 317.614,243.200 317.188,243.200 316.767 C 243.200 316.345,243.380 316.000,243.600 316.000 C 243.820 316.000,244.000 315.640,244.000 315.200 C 244.000 314.760,244.180 314.400,244.400 314.400 C 244.620 314.400,244.800 314.040,244.800 313.600 C 244.800 313.160,244.980 312.800,245.200 312.800 C 245.420 312.800,245.600 312.440,245.600 312.000 C 245.600 311.560,245.780 311.200,246.000 311.200 C 246.220 311.200,246.400 310.840,246.400 310.400 C 246.400 309.960,246.580 309.600,246.800 309.600 C 247.020 309.600,247.200 309.240,247.200 308.800 C 247.200 308.360,247.380 308.000,247.600 308.000 C 247.820 308.000,248.000 307.730,248.000 307.400 C 248.000 307.070,248.180 306.800,248.400 306.800 C 248.620 306.800,248.800 306.440,248.800 306.000 C 248.800 305.560,248.980 305.200,249.200 305.200 C 249.420 305.200,249.600 304.880,249.600 304.488 C 249.600 304.097,249.960 303.517,250.400 303.200 C 250.840 302.883,251.200 302.303,251.200 301.912 C 251.200 301.520,251.380 301.200,251.600 301.200 C 251.820 301.200,252.000 300.964,252.000 300.675 C 252.000 300.387,252.360 299.764,252.800 299.292 C 253.240 298.820,253.600 298.156,253.600 297.817 C 253.600 297.478,253.750 297.200,253.932 297.200 C 254.115 297.200,254.520 296.705,254.832 296.100 C 255.144 295.495,255.497 294.910,255.617 294.800 C 258.818 291.870,259.521 282.031,256.795 278.316 C 256.358 277.720,256.000 277.085,256.000 276.905 C 256.000 276.724,255.640 276.317,255.200 276.000 C 254.760 275.683,254.400 275.287,254.400 275.121 C 254.400 274.755,257.537 273.200,258.275 273.200 C 258.564 273.200,258.800 273.020,258.800 272.800 C 258.800 272.580,259.160 272.400,259.600 272.400 C 260.040 272.400,260.400 272.220,260.400 272.000 C 260.400 271.780,260.760 271.600,261.200 271.600 C 261.640 271.600,262.000 271.420,262.000 271.200 C 262.000 270.980,262.360 270.800,262.800 270.800 C 263.240 270.800,263.600 270.620,263.600 270.400 C 263.600 270.180,263.960 270.000,264.400 270.000 C 264.840 270.000,265.200 269.820,265.200 269.600 C 265.200 269.380,265.560 269.200,266.000 269.200 C 266.440 269.200,266.800 269.020,266.800 268.800 C 266.800 268.580,267.160 268.400,267.600 268.400 C 268.040 268.400,268.400 268.220,268.400 268.000 C 268.400 267.780,268.760 267.600,269.200 267.600 C 269.640 267.600,270.000 267.420,270.000 267.200 C 270.000 266.980,270.236 266.800,270.525 266.800 C 270.813 266.800,271.398 266.485,271.825 266.100 C 272.251 265.715,273.140 265.131,273.800 264.803 C 274.460 264.474,275.291 263.889,275.647 263.503 C 276.003 263.116,276.588 262.800,276.947 262.800 C 277.306 262.800,277.600 262.650,277.600 262.468 C 277.600 262.285,278.095 261.881,278.700 261.570 C 279.305 261.260,280.091 260.689,280.447 260.303 C 280.803 259.916,281.348 259.600,281.659 259.600 C 281.969 259.600,282.483 259.240,282.800 258.800 C 283.117 258.360,283.652 257.996,283.988 257.990 C 284.687 257.979,286.631 256.501,288.885 254.267 L 290.431 252.733 290.316 249.471 C 290.213 246.589,290.108 246.191,289.410 246.058 C 288.976 245.975,287.989 245.478,287.217 244.953 C 284.702 243.244,282.643 243.579,278.935 246.300 C 247.641 269.262,212.573 277.400,175.000 270.421 C 152.871 266.311,129.206 254.475,112.800 239.312 C 111.370 237.990,109.636 236.436,108.946 235.857 C 107.426 234.583,100.452 226.793,97.616 223.200 C 96.487 221.770,95.311 220.295,95.004 219.921 C 89.383 213.101,80.047 195.565,76.944 186.000 C 76.622 185.010,76.207 183.840,76.020 183.400 C 67.980 164.441,67.433 127.719,74.848 104.600 C 75.271 103.280,75.806 101.570,76.035 100.800 C 76.265 100.030,76.604 99.040,76.789 98.600 C 76.974 98.160,77.895 95.820,78.835 93.400 C 82.714 83.422,91.082 68.915,97.294 61.400 C 97.658 60.960,99.229 59.078,100.786 57.218 C 104.405 52.895,104.869 51.501,103.625 48.678 C 103.121 47.535,102.719 46.275,102.731 45.879 C 102.744 45.482,102.449 45.064,102.077 44.949 C 101.705 44.835,101.087 44.575,100.705 44.371 C 99.779 43.876,96.911 43.897,96.600 44.400 M152.600 170.983 C 143.225 172.811,136.713 179.545,136.633 187.492 C 136.600 190.775,136.605 190.789,138.085 192.271 C 141.434 195.621,147.596 193.313,147.601 188.706 C 147.612 179.837,163.494 179.765,165.274 188.625 C 166.812 196.284,176.414 195.508,176.394 187.726 C 176.368 177.093,164.411 168.679,152.600 170.983 M239.800 170.898 C 230.417 172.716,223.626 179.774,223.606 187.726 C 223.586 195.508,233.188 196.284,234.726 188.625 C 236.506 179.765,252.388 179.837,252.399 188.706 C 252.404 193.313,258.567 195.622,261.915 192.271 L 263.400 190.784 263.351 187.473 C 263.196 176.973,251.376 168.654,239.800 170.898 M195.800 188.191 C 186.619 190.089,180.273 196.773,180.221 204.600 C 180.204 207.197,180.351 208.003,181.000 208.875 C 184.052 212.977,191.193 210.750,191.199 205.695 C 191.203 202.164,195.220 199.200,200.000 199.200 C 204.780 199.200,208.797 202.164,208.801 205.695 C 208.807 210.750,215.948 212.977,219.000 208.875 C 219.649 208.003,219.796 207.197,219.779 204.600 C 219.709 193.976,207.670 185.738,195.800 188.191 M112.000 192.034 C 103.154 194.319,98.108 199.359,97.663 206.354 C 97.159 214.261,107.192 215.959,108.574 208.200 C 109.755 201.573,120.882 201.198,122.424 207.733 C 124.316 215.753,134.000 214.675,133.537 206.495 C 133.017 197.290,121.525 189.573,112.000 192.034 M280.122 192.196 C 272.279 194.113,266.840 199.807,266.463 206.495 C 266.003 214.628,275.613 215.761,277.569 207.805 C 279.202 201.163,290.228 201.478,291.426 208.200 C 292.753 215.649,302.400 214.444,302.400 206.830 C 302.400 197.299,290.697 189.612,280.122 192.196 M240.891 214.579 C 230.148 217.180,223.057 229.724,229.740 234.303 C 233.112 236.613,238.400 234.028,238.400 230.070 C 238.400 229.625,238.872 228.701,239.448 228.016 C 243.216 223.538,255.600 225.150,255.600 230.119 C 255.600 234.655,261.453 236.860,264.915 233.628 L 266.600 232.056 266.556 229.128 C 266.400 218.885,253.442 211.539,240.891 214.579 M148.400 216.251 C 138.308 218.203,130.464 228.056,133.925 234.433 C 136.440 239.067,144.400 237.338,144.400 232.158 C 144.400 229.618,148.697 227.200,153.212 227.200 C 157.208 227.200,161.600 229.702,161.600 231.978 C 161.600 237.252,169.587 239.126,172.084 234.438 C 175.104 228.769,169.415 220.275,160.386 216.972 C 158.610 216.322,150.541 215.837,148.400 216.251 M193.600 231.778 C 189.520 232.927,184.959 235.666,183.133 238.064 C 178.145 244.615,179.530 252.405,185.680 252.399 C 188.228 252.396,191.182 249.618,191.207 247.200 C 191.213 246.650,191.529 245.810,191.909 245.334 C 195.660 240.635,208.739 242.080,208.793 247.200 C 208.829 250.734,213.542 253.491,216.720 251.838 C 223.044 248.548,219.661 237.748,210.998 233.569 C 206.142 231.227,198.392 230.429,193.600 231.778 M178.177 345.800 C 185.285 355.305,189.513 364.937,192.137 377.600 C 192.890 381.235,193.600 385.981,193.600 387.377 L 193.600 388.400 187.024 388.400 C 179.157 388.400,179.946 389.241,179.549 380.429 C 179.260 373.995,178.878 369.575,178.200 364.800 C 177.133 357.284,175.814 350.336,174.411 344.844 C 173.965 343.097,173.600 341.438,173.600 341.159 C 173.600 340.396,175.816 342.643,178.177 345.800 M226.400 341.233 C 226.400 341.472,226.035 343.097,225.589 344.844 C 224.095 350.695,222.723 358.063,221.611 366.200 C 220.913 371.311,220.747 373.341,220.444 380.421 C 220.068 389.236,220.850 388.400,212.976 388.400 L 206.400 388.400 206.400 387.250 C 206.400 382.452,209.430 369.633,212.226 362.600 C 215.647 353.997,226.400 337.787,226.400 341.233 M154.660 354.100 C 164.041 363.770,167.661 371.468,167.748 381.934 L 167.800 388.200 163.600 388.200 L 159.400 388.200 158.920 385.200 C 156.959 372.937,154.957 364.295,152.004 355.353 C 150.114 349.628,150.256 349.561,154.660 354.100 M249.200 351.253 C 249.200 351.501,248.686 353.256,248.057 355.153 C 247.428 357.049,246.687 359.410,246.410 360.400 C 246.134 361.390,245.765 362.650,245.592 363.200 C 245.418 363.750,245.087 365.010,244.856 366.000 C 244.624 366.990,244.135 369.060,243.767 370.600 C 243.400 372.140,242.533 376.730,241.840 380.800 L 240.581 388.200 236.390 388.200 L 232.200 388.200 232.252 381.934 C 232.312 374.664,232.687 373.073,235.712 367.237 C 239.211 360.485,249.200 348.648,249.200 351.253 M131.798 361.383 C 139.403 366.811,144.921 375.544,146.914 385.309 C 147.584 388.589,147.763 388.488,141.609 388.317 C 137.525 388.203,137.410 388.174,137.128 387.200 C 136.969 386.650,136.277 383.770,135.591 380.800 C 134.517 376.155,131.923 367.559,130.824 365.000 C 130.634 364.560,130.102 363.347,129.640 362.304 C 128.187 359.025,128.379 358.944,131.798 361.383 M271.200 360.004 C 271.200 360.227,270.822 361.262,270.360 362.304 C 269.315 364.663,269.006 365.435,268.400 367.200 C 268.136 367.970,267.771 368.960,267.589 369.400 C 266.872 371.137,265.615 375.656,264.418 380.800 C 263.727 383.770,263.031 386.650,262.872 387.200 C 262.580 388.207,256.101 388.907,253.366 388.226 C 250.944 387.622,256.026 374.194,260.911 368.292 C 264.717 363.692,271.200 358.471,271.200 360.004 M114.400 377.487 C 119.723 379.244,124.080 382.802,124.749 385.939 C 125.280 388.429,125.331 388.400,120.363 388.400 L 115.973 388.400 114.576 385.375 C 113.807 383.712,112.463 381.173,111.589 379.734 C 109.319 375.997,109.484 375.865,114.400 377.487 M290.000 376.759 C 290.000 376.957,289.285 378.295,288.411 379.734 C 287.537 381.173,286.193 383.712,285.424 385.375 L 284.027 388.400 279.637 388.400 C 274.661 388.400,274.719 388.433,275.258 385.906 C 276.040 382.239,280.900 378.674,287.600 376.853 C 289.456 376.348,290.000 376.327,290.000 376.759 " stroke="none" fill="#050605" fill-rule="evenodd"></path><path id="path1" d="M189.800 12.449 C 175.674 13.775,161.099 17.184,151.200 21.475 C 150.430 21.808,149.440 22.224,149.000 22.398 C 147.901 22.832,137.680 27.884,136.200 28.725 C 131.979 31.122,122.529 37.318,122.000 38.036 C 120.522 40.042,115.764 40.578,113.438 39.000 C 111.937 37.981,110.400 37.678,110.400 38.400 C 110.400 38.620,110.237 38.800,110.037 38.800 C 109.837 38.800,108.853 39.565,107.850 40.500 C 106.847 41.435,105.264 42.894,104.332 43.742 L 102.638 45.284 103.719 47.348 C 105.835 51.390,105.454 52.430,98.975 60.289 C 97.202 62.440,95.139 65.100,94.392 66.200 C 93.645 67.300,92.725 68.534,92.348 68.942 C 91.971 69.350,91.446 70.205,91.183 70.842 C 90.919 71.479,90.545 72.000,90.351 72.000 C 90.158 72.000,90.000 72.197,90.000 72.438 C 90.000 72.679,89.661 73.354,89.247 73.938 C 87.169 76.870,80.901 89.282,79.217 93.800 C 78.725 95.120,78.178 96.560,78.001 97.000 C 77.825 97.440,77.464 98.430,77.200 99.200 C 76.936 99.970,76.578 100.960,76.405 101.400 C 76.233 101.840,75.870 103.010,75.600 104.000 C 75.330 104.990,74.963 106.160,74.785 106.600 C 74.606 107.040,74.349 107.940,74.212 108.600 C 74.076 109.260,73.782 110.520,73.560 111.400 C 69.427 127.772,68.830 148.433,71.996 165.600 C 72.219 166.810,72.515 168.569,72.654 169.509 C 72.793 170.449,73.062 171.315,73.253 171.433 C 73.444 171.551,73.600 172.168,73.600 172.805 C 73.600 173.441,73.761 174.376,73.958 174.881 C 74.155 175.387,74.541 176.610,74.815 177.600 C 76.030 181.987,77.924 187.481,78.847 189.295 C 79.041 189.677,79.200 190.165,79.200 190.380 C 79.200 191.001,81.954 196.992,84.543 202.000 C 85.850 204.530,87.118 207.004,87.360 207.497 C 87.602 207.990,87.935 208.395,88.100 208.397 C 88.265 208.399,88.400 208.585,88.400 208.812 C 88.400 212.309,106.139 233.112,117.042 242.400 C 120.857 245.650,133.376 254.400,134.211 254.400 C 134.323 254.400,135.536 255.076,136.907 255.901 C 140.501 258.066,146.725 261.042,152.200 263.214 C 163.159 267.561,176.924 270.767,189.400 271.879 C 196.943 272.551,208.960 272.182,218.600 270.982 C 224.030 270.306,234.139 267.855,242.200 265.260 C 245.387 264.234,252.102 261.570,252.580 261.141 C 252.789 260.953,253.284 260.800,253.680 260.800 C 254.076 260.800,254.400 260.620,254.400 260.400 C 254.400 260.180,254.645 260.000,254.944 260.000 C 255.601 260.000,260.545 257.524,260.733 257.100 C 260.807 256.935,261.212 256.800,261.633 256.800 C 262.055 256.800,262.400 256.641,262.400 256.447 C 262.400 256.252,262.715 255.990,263.100 255.864 C 264.699 255.341,273.959 249.371,277.891 246.328 C 279.262 245.268,280.567 244.400,280.791 244.400 C 281.016 244.400,281.200 244.220,281.200 244.000 C 281.200 243.771,282.400 243.600,284.000 243.600 C 285.600 243.600,286.800 243.771,286.800 244.000 C 286.800 244.220,287.048 244.400,287.351 244.400 C 287.654 244.400,288.126 244.670,288.400 245.000 C 289.276 246.056,290.362 245.653,292.709 243.402 C 298.887 237.474,298.473 238.209,296.990 235.800 C 294.678 232.047,295.112 231.120,304.600 219.521 C 305.536 218.378,311.600 209.240,311.600 208.974 C 311.600 208.836,311.935 208.246,312.345 207.662 C 312.755 207.078,314.181 204.440,315.514 201.800 C 317.726 197.418,318.537 195.683,320.283 191.600 C 321.384 189.025,321.545 188.608,322.055 187.000 C 322.335 186.120,322.707 185.229,322.882 185.020 C 323.057 184.811,323.200 184.237,323.200 183.744 C 323.200 183.251,323.380 182.736,323.600 182.600 C 323.820 182.464,324.000 181.924,324.000 181.400 C 324.000 180.876,324.180 180.336,324.400 180.200 C 324.620 180.064,324.800 179.434,324.800 178.800 C 324.800 178.166,324.960 177.548,325.156 177.427 C 325.351 177.306,325.608 176.621,325.727 175.904 C 325.845 175.187,326.146 173.790,326.396 172.800 C 326.831 171.075,327.114 169.723,328.005 165.100 C 330.776 150.724,330.433 129.483,327.195 115.000 C 326.949 113.900,326.651 112.324,326.532 111.497 C 326.413 110.671,326.155 109.895,325.958 109.774 C 325.761 109.652,325.600 109.034,325.600 108.400 C 325.600 107.766,325.420 107.136,325.200 107.000 C 324.980 106.864,324.800 106.234,324.800 105.600 C 324.800 104.966,324.620 104.336,324.400 104.200 C 324.180 104.064,324.000 103.524,324.000 103.000 C 324.000 102.476,323.820 101.936,323.600 101.800 C 323.380 101.664,323.200 101.201,323.200 100.771 C 323.200 100.341,323.034 99.677,322.832 99.295 C 322.630 98.913,322.069 97.520,321.586 96.200 C 320.091 92.109,318.531 88.598,315.899 83.400 C 312.618 76.920,306.847 67.381,305.613 66.400 C 305.475 66.290,304.932 65.570,304.408 64.800 C 299.778 58.000,285.877 43.753,279.843 39.623 C 279.379 39.306,278.910 38.937,278.800 38.804 C 278.690 38.671,277.970 38.129,277.200 37.600 C 276.430 37.071,275.710 36.533,275.600 36.405 C 275.338 36.099,267.245 30.800,267.040 30.800 C 266.953 30.800,265.738 30.120,264.341 29.290 C 262.943 28.459,261.260 27.514,260.600 27.190 C 259.940 26.866,259.310 26.511,259.200 26.401 C 258.724 25.923,257.161 25.200,256.605 25.200 C 256.272 25.200,256.000 25.020,256.000 24.800 C 256.000 24.580,255.747 24.400,255.438 24.400 C 255.129 24.400,254.184 24.056,253.338 23.637 C 250.566 22.260,248.018 21.200,247.484 21.200 C 247.196 21.200,246.789 21.036,246.580 20.835 C 245.795 20.081,234.736 16.743,228.200 15.287 C 215.128 12.375,201.393 11.360,189.800 12.449 M160.600 170.411 C 163.789 171.220,165.427 171.777,166.800 172.521 C 168.799 173.604,172.374 176.403,172.818 177.233 C 173.025 177.621,173.437 178.179,173.732 178.475 C 176.167 180.910,177.777 188.612,176.396 191.216 C 173.481 196.712,164.800 194.752,164.800 188.598 C 164.800 182.980,154.512 180.350,150.037 184.824 C 148.930 185.931,148.585 186.756,147.834 190.093 C 146.527 195.900,137.789 195.815,136.040 189.977 C 132.962 179.704,148.486 167.336,160.600 170.411 M248.595 170.600 C 258.232 172.901,265.824 182.392,263.957 189.806 C 262.453 195.777,253.494 195.995,252.166 190.093 C 251.415 186.756,251.070 185.931,249.963 184.824 C 245.454 180.316,235.200 182.985,235.200 188.667 C 235.200 194.703,226.474 196.607,223.593 191.200 C 222.166 188.524,223.741 181.002,226.254 178.488 C 226.557 178.185,226.975 177.621,227.182 177.233 C 227.626 176.403,231.201 173.604,233.200 172.521 C 234.535 171.798,236.111 171.251,239.200 170.440 C 241.324 169.882,245.914 169.960,248.595 170.600 M204.240 187.553 C 204.878 187.748,206.210 188.144,207.200 188.435 C 216.924 191.288,223.918 203.746,219.013 209.476 C 215.388 213.712,208.501 211.358,208.371 205.839 C 208.182 197.862,191.818 197.862,191.629 205.839 C 191.499 211.358,184.612 213.712,180.987 209.476 C 176.072 203.734,183.050 191.304,192.800 188.433 C 193.790 188.141,195.050 187.759,195.600 187.583 C 196.978 187.142,202.825 187.122,204.240 187.553 M120.600 191.776 C 121.260 191.933,122.160 192.212,122.600 192.397 C 123.040 192.582,123.985 192.972,124.700 193.264 C 125.415 193.556,126.000 193.931,126.000 194.098 C 126.000 194.264,126.225 194.402,126.500 194.404 C 128.562 194.422,133.252 201.036,133.995 204.974 C 135.791 214.491,124.088 217.379,121.884 207.963 C 120.480 201.964,110.754 202.034,109.233 208.054 C 107.978 213.019,104.026 215.015,99.967 212.734 C 93.942 209.347,97.577 197.596,105.875 193.632 C 106.934 193.126,108.113 192.552,108.495 192.356 C 108.877 192.160,109.597 191.997,110.095 191.994 C 110.593 191.991,111.270 191.807,111.600 191.585 C 112.237 191.159,118.554 191.293,120.600 191.776 M289.400 191.776 C 290.060 191.933,291.050 192.251,291.600 192.484 C 292.150 192.717,293.050 193.099,293.600 193.333 C 300.241 196.164,305.178 205.750,302.369 210.358 C 299.054 215.795,292.328 214.568,290.812 208.249 C 289.326 202.054,279.550 201.834,278.116 207.963 C 275.930 217.304,264.154 214.485,265.991 205.060 C 266.766 201.085,271.450 194.400,273.461 194.400 C 273.757 194.400,274.000 194.264,274.000 194.098 C 274.000 193.931,274.585 193.560,275.300 193.271 C 276.015 192.983,276.913 192.579,277.295 192.374 C 277.677 192.168,278.397 191.997,278.895 191.994 C 279.393 191.991,280.070 191.807,280.400 191.585 C 281.037 191.159,287.354 191.293,289.400 191.776 M250.976 213.651 C 263.031 215.893,271.307 227.239,265.615 233.722 C 262.237 237.569,255.200 235.487,255.200 230.640 C 255.200 229.415,253.009 226.800,251.982 226.800 C 251.578 226.800,251.136 226.620,251.000 226.400 C 249.785 224.433,239.219 226.981,239.194 229.247 C 239.132 234.904,232.215 237.879,228.505 233.844 C 220.562 225.206,236.431 210.946,250.976 213.651 M159.548 216.181 C 166.627 218.065,171.686 222.994,173.179 229.462 C 175.168 238.081,163.326 241.244,161.131 232.681 C 159.493 226.289,144.800 226.171,144.800 232.550 C 144.800 236.618,138.760 239.190,135.337 236.579 C 130.304 232.740,132.953 223.590,140.504 218.736 C 145.021 215.832,153.807 214.653,159.548 216.181 M204.800 230.955 C 206.230 231.261,208.149 231.774,209.064 232.096 C 220.186 236.010,224.784 250.263,215.746 252.812 C 212.676 253.678,208.400 250.715,208.400 247.721 C 208.400 244.931,205.127 243.149,200.000 243.149 C 194.975 243.149,191.600 244.937,191.600 247.599 C 191.600 250.175,187.590 253.505,185.068 253.023 C 175.133 251.126,179.313 236.215,190.936 232.091 C 195.625 230.428,200.472 230.031,204.800 230.955 " stroke="none" fill="#f2f2f2" fill-rule="evenodd"></path><path id="path2" d="M154.480 284.880 C 153.789 285.571,153.834 285.717,155.600 288.449 C 157.906 292.017,157.800 294.200,155.182 297.000 C 154.093 298.164,153.873 300.400,154.847 300.400 C 155.041 300.400,155.200 300.636,155.200 300.925 C 155.200 301.213,155.560 301.836,156.000 302.308 C 156.440 302.780,156.800 303.444,156.800 303.783 C 156.800 304.122,156.980 304.400,157.200 304.400 C 157.420 304.400,157.600 304.760,157.600 305.200 C 157.600 305.640,157.766 306.000,157.968 306.000 C 158.171 306.000,158.455 306.541,158.601 307.203 C 158.925 308.679,160.077 309.401,161.174 308.814 C 163.023 307.824,166.195 308.834,167.712 310.895 C 168.573 312.066,170.400 315.671,170.400 316.200 C 170.400 316.315,170.739 317.172,171.154 318.104 C 171.569 319.037,172.307 320.828,172.794 322.085 C 173.451 323.779,174.162 324.753,175.540 325.853 C 184.885 333.308,194.991 347.343,198.831 358.200 C 199.794 360.922,200.259 360.732,201.773 357.000 C 206.556 345.211,217.044 330.976,224.902 325.608 C 225.701 325.062,226.447 324.342,226.560 324.008 C 227.054 322.542,228.328 319.266,228.900 317.990 C 229.244 317.226,229.854 315.790,230.258 314.800 C 232.678 308.865,241.226 293.008,244.852 287.728 C 246.148 285.840,246.289 284.997,245.367 284.643 C 244.054 284.139,154.989 284.371,154.480 284.880 " stroke="none" fill="#fbcf33" fill-rule="evenodd"></path><path id="path3" d="M173.600 341.159 C 173.600 341.438,173.965 343.097,174.411 344.844 C 175.814 350.336,177.133 357.284,178.200 364.800 C 178.878 369.575,179.260 373.995,179.549 380.429 C 179.946 389.241,179.157 388.400,187.024 388.400 L 193.600 388.400 193.600 387.377 C 193.600 378.257,187.337 359.052,181.592 350.554 C 177.776 344.910,173.600 340.001,173.600 341.159 M223.565 343.508 C 216.690 351.789,211.645 361.944,208.813 373.200 C 207.923 376.738,206.400 385.605,206.400 387.250 L 206.400 388.400 212.976 388.400 C 220.850 388.400,220.068 389.236,220.444 380.421 C 220.747 373.341,220.913 371.311,221.611 366.200 C 222.723 358.063,224.095 350.695,225.589 344.844 C 226.877 339.799,226.726 339.699,223.565 343.508 M150.800 351.253 C 150.800 351.501,151.342 353.346,152.004 355.353 C 154.957 364.295,156.959 372.937,158.920 385.200 L 159.400 388.200 163.600 388.200 L 167.800 388.200 167.748 381.934 C 167.688 374.665,167.318 373.092,164.280 367.200 C 160.798 360.447,150.800 348.618,150.800 351.253 M245.371 354.100 C 236.018 363.680,232.339 371.486,232.252 381.934 L 232.200 388.200 236.390 388.200 L 240.581 388.200 241.840 380.800 C 242.533 376.730,243.400 372.140,243.767 370.600 C 244.135 369.060,244.624 366.990,244.856 366.000 C 245.087 365.010,245.418 363.750,245.592 363.200 C 245.765 362.650,246.134 361.390,246.410 360.400 C 246.687 359.410,247.428 357.049,248.057 355.153 C 249.875 349.668,249.747 349.618,245.371 354.100 M128.800 360.004 C 128.800 360.227,129.178 361.262,129.640 362.304 C 130.102 363.347,130.634 364.560,130.824 365.000 C 131.923 367.559,134.517 376.155,135.591 380.800 C 136.277 383.770,136.969 386.650,137.128 387.200 C 137.420 388.207,143.899 388.907,146.634 388.226 C 148.191 387.838,145.623 378.679,142.354 372.966 C 139.325 367.672,128.800 357.607,128.800 360.004 M268.514 361.115 C 260.097 367.395,255.163 375.131,253.086 385.309 C 252.416 388.589,252.237 388.488,258.391 388.317 C 262.475 388.203,262.590 388.174,262.872 387.200 C 263.031 386.650,263.727 383.770,264.418 380.800 C 265.615 375.656,266.872 371.137,267.589 369.400 C 267.771 368.960,268.136 367.970,268.400 367.200 C 269.006 365.435,269.315 364.663,270.360 362.304 C 271.787 359.083,271.492 358.893,268.514 361.115 M110.000 376.727 C 110.000 376.942,110.715 378.295,111.589 379.734 C 112.463 381.173,113.807 383.712,114.576 385.375 L 115.973 388.400 120.363 388.400 C 125.331 388.400,125.280 388.429,124.749 385.939 C 123.940 382.146,118.044 378.058,111.300 376.615 C 110.530 376.450,110.000 376.496,110.000 376.727 M287.600 376.853 C 280.900 378.674,276.040 382.239,275.258 385.906 C 274.719 388.433,274.661 388.400,279.637 388.400 L 284.027 388.400 285.424 385.375 C 286.193 383.712,287.537 381.173,288.411 379.734 C 290.573 376.175,290.539 376.054,287.600 376.853 " stroke="none" fill="#57c07f" fill-rule="evenodd"></path><path id="path4" d="M189.997 11.736 C 189.886 11.847,187.906 12.136,185.598 12.379 C 167.956 14.230,150.139 19.993,135.200 28.679 C 131.041 31.097,126.618 33.960,123.600 36.187 C 118.289 40.105,116.817 40.469,113.800 38.610 C 112.920 38.068,111.930 37.634,111.600 37.644 C 111.111 37.660,111.104 37.704,111.562 37.885 C 111.871 38.008,112.751 38.534,113.517 39.054 C 115.765 40.579,120.550 40.005,122.000 38.036 C 122.529 37.318,131.979 31.122,136.200 28.725 C 137.680 27.884,147.901 22.832,149.000 22.398 C 149.440 22.224,150.430 21.808,151.200 21.475 C 171.221 12.796,199.939 9.808,222.400 14.068 C 230.971 15.693,245.444 19.744,246.580 20.835 C 246.789 21.036,247.196 21.200,247.484 21.200 C 248.018 21.200,250.566 22.260,253.338 23.637 C 254.184 24.056,255.129 24.400,255.438 24.400 C 255.747 24.400,256.000 24.580,256.000 24.800 C 256.000 25.020,256.272 25.200,256.605 25.200 C 257.161 25.200,258.724 25.923,259.200 26.401 C 259.310 26.511,259.940 26.866,260.600 27.190 C 261.260 27.514,262.943 28.459,264.341 29.290 C 265.738 30.120,266.953 30.800,267.040 30.800 C 267.245 30.800,275.338 36.099,275.600 36.405 C 275.710 36.533,276.430 37.071,277.200 37.600 C 277.970 38.129,278.690 38.671,278.800 38.804 C 278.910 38.937,279.379 39.306,279.843 39.623 C 285.877 43.753,299.778 58.000,304.408 64.800 C 304.932 65.570,305.475 66.290,305.613 66.400 C 305.987 66.697,309.808 72.441,311.254 74.879 C 315.395 81.862,319.260 89.836,321.586 96.200 C 322.069 97.520,322.630 98.913,322.832 99.295 C 323.034 99.677,323.200 100.341,323.200 100.771 C 323.200 101.201,323.380 101.664,323.600 101.800 C 323.820 101.936,324.000 102.476,324.000 103.000 C 324.000 103.524,324.180 104.064,324.400 104.200 C 324.620 104.336,324.800 104.966,324.800 105.600 C 324.800 106.234,324.980 106.864,325.200 107.000 C 325.420 107.136,325.600 107.766,325.600 108.400 C 325.600 109.034,325.761 109.652,325.958 109.774 C 326.155 109.895,326.413 110.671,326.532 111.497 C 326.651 112.324,326.949 113.900,327.195 115.000 C 330.423 129.439,330.776 150.924,328.018 165.000 C 327.802 166.100,327.451 167.900,327.238 169.000 C 327.025 170.100,326.646 171.810,326.396 172.800 C 326.146 173.790,325.845 175.187,325.727 175.904 C 325.608 176.621,325.351 177.306,325.156 177.427 C 324.960 177.548,324.800 178.166,324.800 178.800 C 324.800 179.434,324.620 180.064,324.400 180.200 C 324.180 180.336,324.000 180.876,324.000 181.400 C 324.000 181.924,323.820 182.464,323.600 182.600 C 323.380 182.736,323.200 183.251,323.200 183.744 C 323.200 184.237,323.057 184.811,322.882 185.020 C 322.707 185.229,322.335 186.120,322.055 187.000 C 321.545 188.608,321.384 189.025,320.283 191.600 C 318.537 195.683,317.726 197.418,315.514 201.800 C 314.181 204.440,312.755 207.078,312.345 207.662 C 311.935 208.246,311.600 208.836,311.600 208.974 C 311.600 209.240,305.536 218.378,304.600 219.521 C 294.951 231.317,294.674 231.941,297.200 236.200 C 297.852 237.300,298.389 237.925,298.393 237.589 C 298.397 237.253,298.116 236.572,297.768 236.076 C 295.557 232.920,296.061 231.147,300.864 225.176 C 308.875 215.219,314.810 205.483,320.113 193.600 C 331.358 168.401,333.650 134.448,325.932 107.400 C 324.654 102.922,321.957 95.034,321.562 94.620 C 321.363 94.411,321.200 94.011,321.200 93.732 C 321.200 91.069,309.495 69.939,304.991 64.473 C 304.687 64.103,303.513 62.630,302.384 61.200 C 299.478 57.519,292.617 49.869,290.872 48.364 C 290.062 47.666,288.590 46.345,287.600 45.429 C 281.846 40.105,272.348 33.076,266.214 29.601 C 265.436 29.160,264.125 28.416,263.300 27.946 C 254.234 22.787,241.502 17.790,231.400 15.426 C 229.860 15.066,227.970 14.605,227.200 14.402 C 226.430 14.199,225.170 13.938,224.400 13.821 C 223.630 13.705,221.920 13.422,220.600 13.191 C 215.041 12.222,210.824 11.910,200.800 11.727 C 194.969 11.621,190.108 11.625,189.997 11.736 M103.414 48.100 C 104.997 51.499,104.663 52.618,100.633 57.409 C 96.722 62.059,96.842 61.907,94.202 65.600 C 87.808 74.543,82.271 84.560,78.835 93.400 C 77.895 95.820,76.974 98.160,76.789 98.600 C 76.604 99.040,76.265 100.030,76.035 100.800 C 75.806 101.570,75.271 103.280,74.848 104.600 C 69.017 122.781,67.830 147.232,71.803 167.318 C 73.020 173.471,74.981 180.950,76.020 183.400 C 76.207 183.840,76.622 185.010,76.944 186.000 C 80.047 195.565,89.383 213.101,95.004 219.921 C 95.311 220.295,96.487 221.770,97.616 223.200 C 100.452 226.793,107.426 234.583,108.946 235.857 C 109.636 236.436,111.370 237.990,112.800 239.312 C 144.386 268.504,191.090 279.724,233.900 268.403 C 249.874 264.179,264.049 257.222,278.935 246.300 C 282.676 243.555,284.696 243.240,287.286 245.000 C 289.036 246.189,290.150 246.347,288.691 245.200 C 288.131 244.760,287.477 244.400,287.237 244.400 C 286.997 244.400,286.800 244.220,286.800 244.000 C 286.800 243.771,285.600 243.600,284.000 243.600 C 282.400 243.600,281.200 243.771,281.200 244.000 C 281.200 244.220,281.016 244.400,280.791 244.400 C 280.567 244.400,279.262 245.268,277.891 246.328 C 273.959 249.371,264.699 255.341,263.100 255.864 C 262.715 255.990,262.400 256.252,262.400 256.447 C 262.400 256.641,262.055 256.800,261.633 256.800 C 261.212 256.800,260.807 256.935,260.733 257.100 C 260.545 257.524,255.601 260.000,254.944 260.000 C 254.645 260.000,254.400 260.180,254.400 260.400 C 254.400 260.620,254.076 260.800,253.680 260.800 C 253.284 260.800,252.789 260.953,252.580 261.141 C 252.102 261.570,245.387 264.234,242.200 265.260 C 234.139 267.855,224.030 270.306,218.600 270.982 C 200.620 273.220,185.753 272.486,169.372 268.551 C 157.494 265.697,145.253 260.928,136.907 255.901 C 135.536 255.076,134.323 254.400,134.211 254.400 C 133.376 254.400,120.857 245.650,117.042 242.400 C 106.139 233.112,88.400 212.309,88.400 208.812 C 88.400 208.585,88.265 208.399,88.100 208.397 C 87.935 208.395,87.602 207.990,87.360 207.497 C 87.118 207.004,85.850 204.530,84.543 202.000 C 81.954 196.992,79.200 191.001,79.200 190.380 C 79.200 190.165,79.041 189.677,78.847 189.295 C 77.924 187.481,76.030 181.987,74.815 177.600 C 74.541 176.610,74.155 175.387,73.958 174.881 C 73.761 174.376,73.600 173.441,73.600 172.805 C 73.600 172.168,73.444 171.551,73.253 171.433 C 73.062 171.315,72.793 170.449,72.654 169.509 C 72.515 168.569,72.219 166.810,71.996 165.600 C 68.830 148.433,69.427 127.772,73.560 111.400 C 73.782 110.520,74.076 109.260,74.212 108.600 C 74.349 107.940,74.606 107.040,74.785 106.600 C 74.963 106.160,75.330 104.990,75.600 104.000 C 75.870 103.010,76.233 101.840,76.405 101.400 C 76.578 100.960,76.936 99.970,77.200 99.200 C 77.464 98.430,77.825 97.440,78.001 97.000 C 78.178 96.560,78.725 95.120,79.217 93.800 C 80.901 89.282,87.169 76.870,89.247 73.938 C 89.661 73.354,90.000 72.679,90.000 72.438 C 90.000 72.197,90.158 72.000,90.351 72.000 C 90.545 72.000,90.919 71.479,91.183 70.842 C 91.446 70.205,91.971 69.350,92.348 68.942 C 92.725 68.534,93.645 67.300,94.392 66.200 C 95.139 65.100,97.202 62.440,98.975 60.289 C 105.326 52.585,105.820 51.322,103.902 47.700 C 102.621 45.282,102.246 45.590,103.414 48.100 M151.247 170.613 C 137.978 173.846,130.175 190.699,140.295 194.271 C 143.217 195.302,147.153 193.121,147.834 190.093 C 148.585 186.756,148.930 185.931,150.037 184.824 C 154.512 180.350,164.800 182.980,164.800 188.598 C 164.800 194.752,173.481 196.712,176.396 191.216 C 177.777 188.612,176.167 180.910,173.732 178.475 C 173.437 178.179,173.025 177.621,172.818 177.233 C 172.374 176.403,168.799 173.604,166.800 172.521 C 165.427 171.777,163.789 171.220,160.600 170.411 C 158.461 169.868,153.901 169.966,151.247 170.613 M239.200 170.440 C 236.111 171.251,234.535 171.798,233.200 172.521 C 231.201 173.604,227.626 176.403,227.182 177.233 C 226.975 177.621,226.557 178.185,226.254 178.488 C 223.741 181.002,222.166 188.524,223.593 191.200 C 226.474 196.607,235.200 194.703,235.200 188.667 C 235.200 182.985,245.454 180.316,249.963 184.824 C 251.070 185.931,251.415 186.756,252.166 190.093 C 253.494 195.995,262.453 195.777,263.957 189.806 C 266.625 179.209,251.339 167.251,239.200 170.440 M159.776 170.850 C 169.573 172.671,176.374 179.577,176.394 187.726 C 176.414 195.508,166.812 196.284,165.274 188.625 C 163.494 179.765,147.612 179.837,147.601 188.706 C 147.596 193.313,141.434 195.621,138.085 192.271 C 136.605 190.789,136.600 190.775,136.633 187.492 C 136.737 177.209,148.494 168.754,159.776 170.850 M246.754 170.842 C 256.422 172.458,263.230 179.281,263.351 187.473 L 263.400 190.784 261.915 192.271 C 258.567 195.622,252.404 193.313,252.399 188.706 C 252.388 179.837,236.506 179.765,234.726 188.625 C 233.188 196.284,223.586 195.508,223.606 187.726 C 223.632 177.367,235.221 168.915,246.754 170.842 M195.600 187.583 C 195.050 187.759,193.790 188.141,192.800 188.433 C 183.050 191.304,176.072 203.734,180.987 209.476 C 184.612 213.712,191.499 211.358,191.629 205.839 C 191.818 197.862,208.182 197.862,208.371 205.839 C 208.501 211.358,215.388 213.712,219.013 209.476 C 223.918 203.746,216.924 191.288,207.200 188.435 C 206.210 188.144,204.878 187.748,204.240 187.553 C 202.825 187.122,196.978 187.142,195.600 187.583 M203.376 188.050 C 213.129 189.862,219.726 196.518,219.779 204.600 C 219.796 207.197,219.649 208.003,219.000 208.875 C 215.948 212.977,208.807 210.750,208.801 205.695 C 208.797 202.164,204.780 199.200,200.000 199.200 C 195.220 199.200,191.203 202.164,191.199 205.695 C 191.193 210.750,184.052 212.977,181.000 208.875 C 180.351 208.003,180.204 207.197,180.221 204.600 C 180.289 194.271,191.960 185.930,203.376 188.050 M111.600 191.585 C 111.270 191.807,110.593 191.991,110.095 191.994 C 109.597 191.997,108.877 192.160,108.495 192.356 C 108.113 192.552,106.934 193.126,105.875 193.632 C 97.577 197.596,93.942 209.347,99.967 212.734 C 104.026 215.015,107.978 213.019,109.233 208.054 C 110.754 202.034,120.480 201.964,121.884 207.963 C 124.088 217.379,135.791 214.491,133.995 204.974 C 133.252 201.036,128.562 194.422,126.500 194.404 C 126.225 194.402,126.000 194.264,126.000 194.098 C 126.000 193.931,125.415 193.556,124.700 193.264 C 123.985 192.972,123.040 192.582,122.600 192.397 C 120.304 191.431,112.669 190.868,111.600 191.585 M280.400 191.585 C 280.070 191.807,279.393 191.991,278.895 191.994 C 278.397 191.997,277.677 192.168,277.295 192.374 C 276.913 192.579,276.015 192.983,275.300 193.271 C 274.585 193.560,274.000 193.931,274.000 194.098 C 274.000 194.264,273.757 194.400,273.461 194.400 C 271.450 194.400,266.766 201.085,265.991 205.060 C 264.154 214.485,275.930 217.304,278.116 207.963 C 279.550 201.834,289.326 202.054,290.812 208.249 C 292.328 214.568,299.054 215.795,302.369 210.358 C 305.178 205.750,300.241 196.164,293.600 193.333 C 293.050 193.099,292.150 192.717,291.600 192.484 C 289.131 191.438,281.529 190.829,280.400 191.585 M119.454 192.155 C 127.493 193.880,133.150 199.641,133.537 206.495 C 134.000 214.675,124.316 215.753,122.424 207.733 C 120.882 201.198,109.755 201.573,108.574 208.200 C 107.826 212.399,103.964 214.355,100.388 212.345 C 94.791 209.199,98.283 197.862,106.000 194.126 C 110.875 191.766,114.898 191.177,119.454 192.155 M288.400 192.171 C 296.937 194.276,302.400 199.996,302.400 206.830 C 302.400 214.444,292.753 215.649,291.426 208.200 C 290.228 201.478,279.202 201.163,277.569 207.805 C 275.613 215.761,266.003 214.628,266.463 206.495 C 266.999 197.009,278.244 189.667,288.400 192.171 M242.800 213.667 C 230.553 216.193,222.598 227.420,228.505 233.844 C 232.215 237.879,239.132 234.904,239.194 229.247 C 239.219 226.981,249.785 224.433,251.000 226.400 C 251.136 226.620,251.578 226.800,251.982 226.800 C 253.009 226.800,255.200 229.415,255.200 230.640 C 255.200 236.817,265.515 237.460,267.041 231.378 C 269.565 221.324,255.500 211.048,242.800 213.667 M252.942 214.629 C 261.004 216.692,266.455 222.497,266.556 229.128 L 266.600 232.056 264.915 233.628 C 261.453 236.860,255.600 234.655,255.600 230.119 C 255.600 225.150,243.216 223.538,239.448 228.016 C 238.872 228.701,238.400 229.625,238.400 230.070 C 238.400 234.028,233.112 236.613,229.740 234.303 C 227.894 233.038,227.395 231.855,227.434 228.835 C 227.563 218.800,240.684 211.493,252.942 214.629 M145.304 216.574 C 134.711 220.004,128.900 231.669,135.337 236.579 C 138.760 239.190,144.800 236.618,144.800 232.550 C 144.800 226.171,159.493 226.289,161.131 232.681 C 163.326 241.244,175.168 238.081,173.179 229.462 C 170.695 218.699,157.533 212.613,145.304 216.574 M160.386 216.972 C 169.415 220.275,175.104 228.769,172.084 234.438 C 169.587 239.126,161.600 237.252,161.600 231.978 C 161.600 230.735,158.929 228.313,156.882 227.700 C 151.582 226.113,144.400 228.678,144.400 232.158 C 144.400 237.338,136.440 239.067,133.925 234.433 C 130.464 228.056,138.308 218.203,148.400 216.251 C 150.541 215.837,158.610 216.322,160.386 216.972 M194.800 231.003 C 183.734 233.510,176.222 243.595,180.500 250.201 C 183.456 254.767,191.600 252.858,191.600 247.599 C 191.600 244.937,194.975 243.149,200.000 243.149 C 205.127 243.149,208.400 244.931,208.400 247.721 C 208.400 250.715,212.676 253.678,215.746 252.812 C 224.784 250.263,220.186 236.010,209.064 232.096 C 204.320 230.427,199.105 230.027,194.800 231.003 M206.326 231.775 C 218.002 234.883,224.649 247.713,216.720 251.838 C 213.542 253.491,208.829 250.734,208.793 247.200 C 208.787 246.650,208.471 245.810,208.091 245.334 C 204.340 240.635,191.261 242.080,191.207 247.200 C 191.171 250.734,186.458 253.491,183.280 251.838 C 176.504 248.312,180.715 236.994,190.321 232.913 C 194.435 231.165,202.011 230.627,206.326 231.775 M156.190 289.980 C 157.333 292.190,156.931 294.590,155.050 296.797 L 154.200 297.794 155.141 296.998 C 157.409 295.079,157.898 288.800,155.779 288.800 C 155.669 288.800,155.854 289.331,156.190 289.980 M161.221 308.779 C 160.846 309.016,161.270 309.065,162.421 308.918 C 163.399 308.792,164.275 308.625,164.367 308.545 C 164.742 308.219,161.755 308.440,161.221 308.779 M165.633 309.300 C 165.725 309.355,166.340 309.850,167.000 310.400 L 168.200 311.400 167.230 310.300 C 166.697 309.695,166.082 309.200,165.864 309.200 C 165.645 309.200,165.542 309.245,165.633 309.300 M181.000 331.200 C 182.750 332.960,184.271 334.400,184.381 334.400 C 184.491 334.400,183.150 332.960,181.400 331.200 C 179.650 329.440,178.129 328.000,178.019 328.000 C 177.909 328.000,179.250 329.440,181.000 331.200 M218.786 331.100 L 216.600 333.400 218.900 331.214 C 221.037 329.182,221.383 328.800,221.086 328.800 C 221.024 328.800,219.989 329.835,218.786 331.100 M188.575 340.132 C 189.191 340.939,189.776 341.600,189.875 341.600 C 190.153 341.600,188.421 339.260,187.909 338.944 C 187.659 338.789,187.959 339.324,188.575 340.132 M191.149 343.800 C 191.365 344.240,191.834 344.960,192.193 345.400 L 192.844 346.200 192.451 345.400 C 192.235 344.960,191.766 344.240,191.407 343.800 L 190.756 343.000 191.149 343.800 " stroke="none" fill="#929292" fill-rule="evenodd"></path></g></svg>